<svg width="36" height="26" viewBox="0 0 36 26" fill="none" xmlns="http://www.w3.org/2000/svg">
<g filter="url(#filter0_di_728_143)">
<path d="M29.9893 8.66666C29.9964 8.54411 30 8.42062 30 8.29629C30 4.81895 27.1897 2 23.7231 2C22.0549 2 20.5388 2.65273 19.4146 3.71747C18.8459 3.56357 18.2479 3.48148 17.6308 3.48148C15.3986 3.48148 13.4165 4.55544 12.1701 6.21633C11.7901 6.12336 11.3931 6.07407 10.9846 6.07407C8.23168 6.07407 6 8.31264 6 11.0741C6 11.0869 6.00005 11.0998 6.00014 11.1127C6.00005 11.1217 6 11.1307 6 11.1398C6 14.4786 8.69829 17.1852 12.0268 17.1852H21.5077C26.1979 17.1852 30 13.3713 30 8.66666H29.9893Z" fill="white"/>
<path d="M29.9893 8.66666C29.9964 8.54411 30 8.42062 30 8.29629C30 4.81895 27.1897 2 23.7231 2C22.0549 2 20.5388 2.65273 19.4146 3.71747C18.8459 3.56357 18.2479 3.48148 17.6308 3.48148C15.3986 3.48148 13.4165 4.55544 12.1701 6.21633C11.7901 6.12336 11.3931 6.07407 10.9846 6.07407C8.23168 6.07407 6 8.31264 6 11.0741C6 11.0869 6.00005 11.0998 6.00014 11.1127C6.00005 11.1217 6 11.1307 6 11.1398C6 14.4786 8.69829 17.1852 12.0268 17.1852H21.5077C26.1979 17.1852 30 13.3713 30 8.66666H29.9893Z" fill="url(#paint0_radial_728_143)" fill-opacity="0.2"/>
</g>
<line x1="8.71539" y1="21.5" x2="19.9" y2="21.5" stroke="white" stroke-linecap="round"/>
<path d="M9.32306 19.2222H14.8615" stroke="#E5E5E5" stroke-linecap="round"/>
<path d="M17.0769 19.2222H24.8308" stroke="white" stroke-linecap="round"/>
<defs>
<filter id="filter0_di_728_143" x="0.666673" y="2.38419e-06" width="34.6667" height="25.8518" filterUnits="userSpaceOnUse" color-interpolation-filters="sRGB">
<feFlood flood-opacity="0" result="BackgroundImageFix"/>
<feColorMatrix in="SourceAlpha" type="matrix" values="0 0 0 0 0 0 0 0 0 0 0 0 0 0 0 0 0 0 127 0" result="hardAlpha"/>
<feOffset dy="3.33333"/>
<feGaussianBlur stdDeviation="2.66666"/>
<feComposite in2="hardAlpha" operator="out"/>
<feColorMatrix type="matrix" values="0 0 0 0 0.301961 0 0 0 0 0.368627 0 0 0 0 0.435294 0 0 0 0.08 0"/>
<feBlend mode="normal" in2="BackgroundImageFix" result="effect1_dropShadow_728_143"/>
<feBlend mode="normal" in="SourceGraphic" in2="effect1_dropShadow_728_143" result="shape"/>
<feColorMatrix in="SourceAlpha" type="matrix" values="0 0 0 0 0 0 0 0 0 0 0 0 0 0 0 0 0 0 127 0" result="hardAlpha"/>
<feOffset/>
<feGaussianBlur stdDeviation="0.999999"/>
<feComposite in2="hardAlpha" operator="arithmetic" k2="-1" k3="1"/>
<feColorMatrix type="matrix" values="0 0 0 0 0.301961 0 0 0 0 0.368627 0 0 0 0 0.435294 0 0 0 0.08 0"/>
<feBlend mode="normal" in2="shape" result="effect2_innerShadow_728_143"/>
</filter>
<radialGradient id="paint0_radial_728_143" cx="0" cy="0" r="1" gradientUnits="userSpaceOnUse" gradientTransform="translate(22.8 3.48148) rotate(121.748) scale(18.9461 29.9953)">
<stop stop-opacity="0"/>
<stop offset="1" stop-color="#4D5E6F"/>
</radialGradient>
</defs>
</svg>
