<svg width="15" height="16" viewBox="0 0 15 16" fill="none" xmlns="http://www.w3.org/2000/svg">
<path d="M11.4775 4.13117L10.5938 4.9873C9.87807 4.29391 8.93636 3.86238 7.92906 3.76621C6.92176 3.67005 5.91121 3.91521 5.06959 4.45993C4.22796 5.00464 3.60734 5.81521 3.31346 6.75352C3.01959 7.69182 3.07064 8.69981 3.45793 9.60574C3.84521 10.5117 4.54476 11.2595 5.43739 11.7218C6.33002 12.184 7.36049 12.3322 8.35323 12.141C9.34597 11.9497 10.2396 11.431 10.8817 10.673C11.5239 9.9151 11.8749 8.96491 11.875 7.98437H13.125C13.125 9.24507 12.6737 10.4668 11.8482 11.4413C11.0226 12.4158 9.87371 13.0829 8.59734 13.3288C7.32097 13.5748 5.99606 13.3844 4.84836 12.7901C3.70065 12.1958 2.80117 11.2344 2.30316 10.0696C1.80516 8.90487 1.73945 7.60888 2.11722 6.40246C2.495 5.19604 3.29289 4.15385 4.37495 3.45344C5.45701 2.75304 6.75628 2.43777 8.05138 2.56135C9.34649 2.68493 10.5573 3.23971 11.4775 4.13117Z" fill="white"/>
</svg>
