<svg width="36" height="28" viewBox="0 0 36 28" fill="none" xmlns="http://www.w3.org/2000/svg">
<path d="M13.3251 23.0916L11.2821 21.8301L17.5707 18.0969L15.6116 21.2393L17.6546 22.5007L11.3661 26.234L13.3251 23.0916Z" fill="#FAC51C"/>
<g filter="url(#filter0_di_728_75)">
<path d="M29.9893 8.61423C29.9964 8.49265 30 8.37013 30 8.24677C30 4.79678 27.1897 2 23.7231 2C22.0549 2 20.5388 2.6476 19.4146 3.70396C18.8459 3.55128 18.2479 3.46983 17.6308 3.46983C15.3986 3.46983 13.4165 4.53534 12.1701 6.18317C11.7901 6.09093 11.3931 6.04203 10.9846 6.04203C8.23168 6.04203 6 8.263 6 11.0027C6 11.0155 6.00005 11.0283 6.00014 11.041C6.00005 11.05 6 11.0589 6 11.0679C6 14.3804 8.69829 17.0658 12.0268 17.0658H21.5077C26.1979 17.0658 30 13.2819 30 8.61423H29.9893Z" fill="white"/>
<path d="M29.9893 8.61423C29.9964 8.49265 30 8.37013 30 8.24677C30 4.79678 27.1897 2 23.7231 2C22.0549 2 20.5388 2.6476 19.4146 3.70396C18.8459 3.55128 18.2479 3.46983 17.6308 3.46983C15.3986 3.46983 13.4165 4.53534 12.1701 6.18317C11.7901 6.09093 11.3931 6.04203 10.9846 6.04203C8.23168 6.04203 6 8.263 6 11.0027C6 11.0155 6.00005 11.0283 6.00014 11.041C6.00005 11.05 6 11.0589 6 11.0679C6 14.3804 8.69829 17.0658 12.0268 17.0658H21.5077C26.1979 17.0658 30 13.2819 30 8.61423H29.9893Z" fill="url(#paint0_radial_728_75)" fill-opacity="0.2"/>
</g>
<defs>
<filter id="filter0_di_728_75" x="0.666673" y="2.38419e-06" width="34.6667" height="25.7324" filterUnits="userSpaceOnUse" color-interpolation-filters="sRGB">
<feFlood flood-opacity="0" result="BackgroundImageFix"/>
<feColorMatrix in="SourceAlpha" type="matrix" values="0 0 0 0 0 0 0 0 0 0 0 0 0 0 0 0 0 0 127 0" result="hardAlpha"/>
<feOffset dy="3.33333"/>
<feGaussianBlur stdDeviation="2.66666"/>
<feComposite in2="hardAlpha" operator="out"/>
<feColorMatrix type="matrix" values="0 0 0 0 0.301961 0 0 0 0 0.368627 0 0 0 0 0.435294 0 0 0 0.08 0"/>
<feBlend mode="normal" in2="BackgroundImageFix" result="effect1_dropShadow_728_75"/>
<feBlend mode="normal" in="SourceGraphic" in2="effect1_dropShadow_728_75" result="shape"/>
<feColorMatrix in="SourceAlpha" type="matrix" values="0 0 0 0 0 0 0 0 0 0 0 0 0 0 0 0 0 0 127 0" result="hardAlpha"/>
<feOffset/>
<feGaussianBlur stdDeviation="0.999999"/>
<feComposite in2="hardAlpha" operator="arithmetic" k2="-1" k3="1"/>
<feColorMatrix type="matrix" values="0 0 0 0 0.301961 0 0 0 0 0.368627 0 0 0 0 0.435294 0 0 0 0.08 0"/>
<feBlend mode="normal" in2="shape" result="effect2_innerShadow_728_75"/>
</filter>
<radialGradient id="paint0_radial_728_75" cx="0" cy="0" r="1" gradientUnits="userSpaceOnUse" gradientTransform="translate(22.8 3.46983) rotate(121.951) scale(18.8384 29.9294)">
<stop stop-opacity="0"/>
<stop offset="1" stop-color="#4D5E6F"/>
</radialGradient>
</defs>
</svg>
