<svg width="36" height="37" viewBox="0 0 36 37" fill="none" xmlns="http://www.w3.org/2000/svg">
<g filter="url(#filter0_di_728_89)">
<ellipse cx="15.9692" cy="10.4737" rx="7.75385" ry="7.47368" fill="#FBCA1C"/>
<ellipse cx="15.9692" cy="10.4737" rx="7.75385" ry="7.47368" fill="url(#paint0_radial_728_89)" fill-opacity="0.2"/>
</g>
<path d="M13.3251 28.1576L11.2821 26.9132L17.5707 23.2302L15.6116 26.3303L17.6546 27.5748L11.3661 31.2578L13.3251 28.1576Z" fill="#FAC51C"/>
<g filter="url(#filter1_di_728_89)">
<path d="M29.9893 13.8753C29.9964 13.7553 30 13.6345 30 13.5128C30 10.1092 27.1897 7.35011 23.7231 7.35011C22.0549 7.35011 20.5388 7.98899 19.4146 9.03113C18.8459 8.8805 18.2479 8.80015 17.6308 8.80015C15.3986 8.80015 13.4165 9.85131 12.1701 11.477C11.7901 11.386 11.3931 11.3377 10.9846 11.3377C8.23168 11.3377 6 13.5288 6 16.2316C6 16.2442 6.00005 16.2568 6.00014 16.2694C6.00005 16.2782 6 16.287 6 16.2959C6 19.5638 8.69829 22.213 12.0268 22.213H21.5077C26.1979 22.213 30 18.4801 30 13.8753H29.9893Z" fill="white"/>
<path d="M29.9893 13.8753C29.9964 13.7553 30 13.6345 30 13.5128C30 10.1092 27.1897 7.35011 23.7231 7.35011C22.0549 7.35011 20.5388 7.98899 19.4146 9.03113C18.8459 8.8805 18.2479 8.80015 17.6308 8.80015C15.3986 8.80015 13.4165 9.85131 12.1701 11.477C11.7901 11.386 11.3931 11.3377 10.9846 11.3377C8.23168 11.3377 6 13.5288 6 16.2316C6 16.2442 6.00005 16.2568 6.00014 16.2694C6.00005 16.2782 6 16.287 6 16.2959C6 19.5638 8.69829 22.213 12.0268 22.213H21.5077C26.1979 22.213 30 18.4801 30 13.8753H29.9893Z" fill="url(#paint1_radial_728_89)" fill-opacity="0.2"/>
</g>
<g filter="url(#filter2_dii_728_89)">
<path d="M21.5077 24.9044C21.5077 24.2188 22.0635 23.663 22.7491 23.663H23.7204V24.5711C23.7204 25.2694 23.1443 25.8354 22.446 25.8354C21.9318 25.8354 21.5077 25.4186 21.5077 24.9044Z" fill="#379ADC"/>
</g>
<g filter="url(#filter3_dii_728_89)">
<path d="M18.7412 30.3447C18.7412 29.6591 19.297 29.1033 19.9826 29.1033H20.9539V30.0114C20.9539 30.7097 20.3779 31.2757 19.6796 31.2757C19.1654 31.2757 18.7412 30.8589 18.7412 30.3447Z" fill="#379ADC"/>
</g>
<defs>
<filter id="filter0_di_728_89" x="5.54873" y="0.333336" width="20.841" height="20.2807" filterUnits="userSpaceOnUse" color-interpolation-filters="sRGB">
<feFlood flood-opacity="0" result="BackgroundImageFix"/>
<feColorMatrix in="SourceAlpha" type="matrix" values="0 0 0 0 0 0 0 0 0 0 0 0 0 0 0 0 0 0 127 0" result="hardAlpha"/>
<feMorphology radius="0.999999" operator="dilate" in="SourceAlpha" result="effect1_dropShadow_728_89"/>
<feOffset/>
<feGaussianBlur stdDeviation="0.833332"/>
<feComposite in2="hardAlpha" operator="out"/>
<feColorMatrix type="matrix" values="0 0 0 0 0.984314 0 0 0 0 0.792157 0 0 0 0 0.109804 0 0 0 0.2 0"/>
<feBlend mode="normal" in2="BackgroundImageFix" result="effect1_dropShadow_728_89"/>
<feBlend mode="normal" in="SourceGraphic" in2="effect1_dropShadow_728_89" result="shape"/>
<feColorMatrix in="SourceAlpha" type="matrix" values="0 0 0 0 0 0 0 0 0 0 0 0 0 0 0 0 0 0 127 0" result="hardAlpha"/>
<feOffset/>
<feGaussianBlur stdDeviation="1.5"/>
<feComposite in2="hardAlpha" operator="arithmetic" k2="-1" k3="1"/>
<feColorMatrix type="matrix" values="0 0 0 0 0.984314 0 0 0 0 0.529569 0 0 0 0 0.109804 0 0 0 0.5 0"/>
<feBlend mode="normal" in2="shape" result="effect2_innerShadow_728_89"/>
</filter>
<filter id="filter1_di_728_89" x="0.666673" y="5.35012" width="34.6667" height="25.5295" filterUnits="userSpaceOnUse" color-interpolation-filters="sRGB">
<feFlood flood-opacity="0" result="BackgroundImageFix"/>
<feColorMatrix in="SourceAlpha" type="matrix" values="0 0 0 0 0 0 0 0 0 0 0 0 0 0 0 0 0 0 127 0" result="hardAlpha"/>
<feOffset dy="3.33333"/>
<feGaussianBlur stdDeviation="2.66666"/>
<feComposite in2="hardAlpha" operator="out"/>
<feColorMatrix type="matrix" values="0 0 0 0 0.301961 0 0 0 0 0.368627 0 0 0 0 0.435294 0 0 0 0.08 0"/>
<feBlend mode="normal" in2="BackgroundImageFix" result="effect1_dropShadow_728_89"/>
<feBlend mode="normal" in="SourceGraphic" in2="effect1_dropShadow_728_89" result="shape"/>
<feColorMatrix in="SourceAlpha" type="matrix" values="0 0 0 0 0 0 0 0 0 0 0 0 0 0 0 0 0 0 127 0" result="hardAlpha"/>
<feOffset/>
<feGaussianBlur stdDeviation="0.999999"/>
<feComposite in2="hardAlpha" operator="arithmetic" k2="-1" k3="1"/>
<feColorMatrix type="matrix" values="0 0 0 0 0.301961 0 0 0 0 0.368627 0 0 0 0 0.435294 0 0 0 0.08 0"/>
<feBlend mode="normal" in2="shape" result="effect2_innerShadow_728_89"/>
</filter>
<filter id="filter2_dii_728_89" x="18.3116" y="22.065" width="8.6048" height="8.56455" filterUnits="userSpaceOnUse" color-interpolation-filters="sRGB">
<feFlood flood-opacity="0" result="BackgroundImageFix"/>
<feColorMatrix in="SourceAlpha" type="matrix" values="0 0 0 0 0 0 0 0 0 0 0 0 0 0 0 0 0 0 127 0" result="hardAlpha"/>
<feOffset dy="1.59804"/>
<feGaussianBlur stdDeviation="1.59804"/>
<feComposite in2="hardAlpha" operator="out"/>
<feColorMatrix type="matrix" values="0 0 0 0 0.282353 0 0 0 0 0.517647 0 0 0 0 0.933333 0 0 0 0.2 0"/>
<feBlend mode="normal" in2="BackgroundImageFix" result="effect1_dropShadow_728_89"/>
<feBlend mode="normal" in="SourceGraphic" in2="effect1_dropShadow_728_89" result="shape"/>
<feColorMatrix in="SourceAlpha" type="matrix" values="0 0 0 0 0 0 0 0 0 0 0 0 0 0 0 0 0 0 127 0" result="hardAlpha"/>
<feOffset/>
<feGaussianBlur stdDeviation="0.39951"/>
<feComposite in2="hardAlpha" operator="arithmetic" k2="-1" k3="1"/>
<feColorMatrix type="matrix" values="0 0 0 0 0 0 0 0 0 0 0 0 0 0 0 0 0 0 0.25 0"/>
<feBlend mode="normal" in2="shape" result="effect2_innerShadow_728_89"/>
<feColorMatrix in="SourceAlpha" type="matrix" values="0 0 0 0 0 0 0 0 0 0 0 0 0 0 0 0 0 0 127 0" result="hardAlpha"/>
<feOffset dy="-0.39951"/>
<feGaussianBlur stdDeviation="0.39951"/>
<feComposite in2="hardAlpha" operator="arithmetic" k2="-1" k3="1"/>
<feColorMatrix type="matrix" values="0 0 0 0 0 0 0 0 0 0 0 0 0 0 0 0 0 0 0.25 0"/>
<feBlend mode="normal" in2="effect2_innerShadow_728_89" result="effect3_innerShadow_728_89"/>
</filter>
<filter id="filter3_dii_728_89" x="15.5451" y="27.5053" width="8.6048" height="8.56455" filterUnits="userSpaceOnUse" color-interpolation-filters="sRGB">
<feFlood flood-opacity="0" result="BackgroundImageFix"/>
<feColorMatrix in="SourceAlpha" type="matrix" values="0 0 0 0 0 0 0 0 0 0 0 0 0 0 0 0 0 0 127 0" result="hardAlpha"/>
<feOffset dy="1.59804"/>
<feGaussianBlur stdDeviation="1.59804"/>
<feComposite in2="hardAlpha" operator="out"/>
<feColorMatrix type="matrix" values="0 0 0 0 0.282353 0 0 0 0 0.517647 0 0 0 0 0.933333 0 0 0 0.2 0"/>
<feBlend mode="normal" in2="BackgroundImageFix" result="effect1_dropShadow_728_89"/>
<feBlend mode="normal" in="SourceGraphic" in2="effect1_dropShadow_728_89" result="shape"/>
<feColorMatrix in="SourceAlpha" type="matrix" values="0 0 0 0 0 0 0 0 0 0 0 0 0 0 0 0 0 0 127 0" result="hardAlpha"/>
<feOffset/>
<feGaussianBlur stdDeviation="0.39951"/>
<feComposite in2="hardAlpha" operator="arithmetic" k2="-1" k3="1"/>
<feColorMatrix type="matrix" values="0 0 0 0 0 0 0 0 0 0 0 0 0 0 0 0 0 0 0.25 0"/>
<feBlend mode="normal" in2="shape" result="effect2_innerShadow_728_89"/>
<feColorMatrix in="SourceAlpha" type="matrix" values="0 0 0 0 0 0 0 0 0 0 0 0 0 0 0 0 0 0 127 0" result="hardAlpha"/>
<feOffset dy="-0.39951"/>
<feGaussianBlur stdDeviation="0.39951"/>
<feComposite in2="hardAlpha" operator="arithmetic" k2="-1" k3="1"/>
<feColorMatrix type="matrix" values="0 0 0 0 0 0 0 0 0 0 0 0 0 0 0 0 0 0 0.25 0"/>
<feBlend mode="normal" in2="effect2_innerShadow_728_89" result="effect3_innerShadow_728_89"/>
</filter>
<radialGradient id="paint0_radial_728_89" cx="0" cy="0" r="1" gradientUnits="userSpaceOnUse" gradientTransform="translate(14.1231 7.62657) rotate(49.6736) scale(10.27 7.22234)">
<stop stop-color="#FBCA1C"/>
<stop offset="1" stop-color="#E4750E"/>
</radialGradient>
<radialGradient id="paint1_radial_728_89" cx="0" cy="0" r="1" gradientUnits="userSpaceOnUse" gradientTransform="translate(22.8 8.80015) rotate(122.301) scale(18.6561 29.8149)">
<stop stop-opacity="0"/>
<stop offset="1" stop-color="#4D5E6F"/>
</radialGradient>
</defs>
</svg>
