<svg width="105" height="87" viewBox="0 0 105 87" fill="none" xmlns="http://www.w3.org/2000/svg">
<g filter="url(#filter0_di_728_264)">
<path d="M57 26C57 37.598 47.598 47 36 47C24.402 47 15 37.598 15 26C15 14.402 24.402 5 36 5C47.598 5 57 14.402 57 26Z" fill="#FBCA1C"/>
<path d="M57 26C57 37.598 47.598 47 36 47C24.402 47 15 37.598 15 26C15 14.402 24.402 5 36 5C47.598 5 57 14.402 57 26Z" fill="url(#paint0_radial_728_264)" fill-opacity="0.2"/>
</g>
<g filter="url(#filter1_di_728_264)">
<path d="M83.9711 33.5C83.9902 33.1691 84 32.8357 84 32.5C84 23.1112 76.3889 15.5 67 15.5C62.4821 15.5 58.3759 17.2624 55.3312 20.1372C53.7911 19.7216 52.1714 19.5 50.5 19.5C44.4546 19.5 39.0865 22.3997 35.7106 26.8841C34.6815 26.6331 33.6063 26.5 32.5 26.5C25.0441 26.5 19 32.5442 19 40C19 40.0348 19.0001 40.0695 19.0004 40.1042C19.0001 40.1286 19 40.153 19 40.1774C19 49.1921 26.3079 56.5 35.3226 56.5H61C73.7026 56.5 84 46.2025 84 33.5H83.9711Z" fill="white"/>
<path d="M83.9711 33.5C83.9902 33.1691 84 32.8357 84 32.5C84 23.1112 76.3889 15.5 67 15.5C62.4821 15.5 58.3759 17.2624 55.3312 20.1372C53.7911 19.7216 52.1714 19.5 50.5 19.5C44.4546 19.5 39.0865 22.3997 35.7106 26.8841C34.6815 26.6331 33.6063 26.5 32.5 26.5C25.0441 26.5 19 32.5442 19 40C19 40.0348 19.0001 40.0695 19.0004 40.1042C19.0001 40.1286 19 40.153 19 40.1774C19 49.1921 26.3079 56.5 35.3226 56.5H61C73.7026 56.5 84 46.2025 84 33.5H83.9711Z" fill="url(#paint1_radial_728_264)" fill-opacity="0.2"/>
<path d="M83.8463 33.4928L83.8386 33.625H83.8747C83.8074 46.201 73.5918 56.375 61 56.375H35.3226C26.3769 56.375 19.125 49.1231 19.125 40.1774C19.125 40.1534 19.1251 40.1295 19.1254 40.1055H19.1254L19.1254 40.1034C19.1251 40.0689 19.125 40.0345 19.125 40C19.125 32.6132 25.1132 26.625 32.5 26.625C33.5963 26.625 34.6615 26.7569 35.6809 27.0055L35.7609 27.025L35.8104 26.9593C39.1638 22.5049 44.4955 19.625 50.5 19.625C52.1604 19.625 53.769 19.8452 55.2986 20.2578L55.3661 20.2761L55.417 20.228C58.4394 17.3743 62.5153 15.625 67 15.625C76.3198 15.625 83.875 23.1802 83.875 32.5C83.875 32.8333 83.8653 33.1643 83.8463 33.4928Z" stroke="url(#paint2_linear_728_264)" stroke-width="0.25"/>
</g>
<g filter="url(#filter2_di_728_264)">
<path d="M60 42.5C60 34.4919 66.4919 28 74.5 28H77C83.6274 28 89 33.3726 89 40C89 46.6274 83.6274 52 77 52H68C63.5817 52 60 48.4183 60 44V42.5Z" fill="white"/>
<path d="M60 42.5C60 34.4919 66.4919 28 74.5 28H77C83.6274 28 89 33.3726 89 40C89 46.6274 83.6274 52 77 52H68C63.5817 52 60 48.4183 60 44V42.5Z" fill="url(#paint3_radial_728_264)" fill-opacity="0.2"/>
</g>
<g filter="url(#filter3_di_728_264)">
<path d="M32 50C32 44.4772 27.5228 40 22 40H20.5C15.8056 40 12 43.8056 12 48.5C12 53.1944 15.8056 57 20.5 57H26.3333C29.4629 57 32 54.4629 32 51.3333V50Z" fill="white"/>
<path d="M32 50C32 44.4772 27.5228 40 22 40H20.5C15.8056 40 12 43.8056 12 48.5C12 53.1944 15.8056 57 20.5 57H26.3333C29.4629 57 32 54.4629 32 51.3333V50Z" fill="url(#paint4_radial_728_264)" fill-opacity="0.2"/>
</g>
<g filter="url(#filter4_dii_728_264)">
<path d="M24 63.8571C24 62.2792 25.2792 61 26.8571 61H29V63.1429C29 64.7208 27.7208 66 26.1429 66C24.9594 66 24 65.0406 24 63.8571Z" fill="#379ADC"/>
</g>
<g filter="url(#filter5_dii_728_264)">
<path d="M30 71.8571C30 70.2792 31.2792 69 32.8571 69H35V71.1429C35 72.7208 33.7208 74 32.1429 74C30.9594 74 30 73.0406 30 71.8571Z" fill="#379ADC"/>
</g>
<g filter="url(#filter6_dii_728_264)">
<path d="M41 64.8571C41 63.2792 42.2792 62 43.8571 62H46V64.1429C46 65.7208 44.7208 67 43.1429 67C41.9594 67 41 66.0406 41 64.8571Z" fill="#379ADC"/>
</g>
<g filter="url(#filter7_dii_728_264)">
<path d="M46 72.8571C46 71.2792 47.2792 70 48.8571 70H51V72.1429C51 73.7208 49.7208 75 48.1429 75C46.9594 75 46 74.0406 46 72.8571Z" fill="#379ADC"/>
</g>
<g filter="url(#filter8_dii_728_264)">
<path d="M58 64.8571C58 63.2792 59.2792 62 60.8571 62H63V64.1429C63 65.7208 61.7208 67 60.1429 67C58.9594 67 58 66.0406 58 64.8571Z" fill="#379ADC"/>
</g>
<defs>
<filter id="filter0_di_728_264" x="10" y="0" width="52" height="52" filterUnits="userSpaceOnUse" color-interpolation-filters="sRGB">
<feFlood flood-opacity="0" result="BackgroundImageFix"/>
<feColorMatrix in="SourceAlpha" type="matrix" values="0 0 0 0 0 0 0 0 0 0 0 0 0 0 0 0 0 0 127 0" result="hardAlpha"/>
<feOffset/>
<feGaussianBlur stdDeviation="2.5"/>
<feComposite in2="hardAlpha" operator="out"/>
<feColorMatrix type="matrix" values="0 0 0 0 0.984314 0 0 0 0 0.792157 0 0 0 0 0.109804 0 0 0 0.2 0"/>
<feBlend mode="normal" in2="BackgroundImageFix" result="effect1_dropShadow_728_264"/>
<feBlend mode="normal" in="SourceGraphic" in2="effect1_dropShadow_728_264" result="shape"/>
<feColorMatrix in="SourceAlpha" type="matrix" values="0 0 0 0 0 0 0 0 0 0 0 0 0 0 0 0 0 0 127 0" result="hardAlpha"/>
<feOffset/>
<feGaussianBlur stdDeviation="4.5"/>
<feComposite in2="hardAlpha" operator="arithmetic" k2="-1" k3="1"/>
<feColorMatrix type="matrix" values="0 0 0 0 0.984314 0 0 0 0 0.529569 0 0 0 0 0.109804 0 0 0 0.5 0"/>
<feBlend mode="normal" in2="shape" result="effect2_innerShadow_728_264"/>
</filter>
<filter id="filter1_di_728_264" x="3" y="9.5" width="97" height="73" filterUnits="userSpaceOnUse" color-interpolation-filters="sRGB">
<feFlood flood-opacity="0" result="BackgroundImageFix"/>
<feColorMatrix in="SourceAlpha" type="matrix" values="0 0 0 0 0 0 0 0 0 0 0 0 0 0 0 0 0 0 127 0" result="hardAlpha"/>
<feOffset dy="10"/>
<feGaussianBlur stdDeviation="8"/>
<feComposite in2="hardAlpha" operator="out"/>
<feColorMatrix type="matrix" values="0 0 0 0 0.301961 0 0 0 0 0.368627 0 0 0 0 0.435294 0 0 0 0.08 0"/>
<feBlend mode="normal" in2="BackgroundImageFix" result="effect1_dropShadow_728_264"/>
<feBlend mode="normal" in="SourceGraphic" in2="effect1_dropShadow_728_264" result="shape"/>
<feColorMatrix in="SourceAlpha" type="matrix" values="0 0 0 0 0 0 0 0 0 0 0 0 0 0 0 0 0 0 127 0" result="hardAlpha"/>
<feOffset/>
<feGaussianBlur stdDeviation="3"/>
<feComposite in2="hardAlpha" operator="arithmetic" k2="-1" k3="1"/>
<feColorMatrix type="matrix" values="0 0 0 0 0.301961 0 0 0 0 0.368627 0 0 0 0 0.435294 0 0 0 0.08 0"/>
<feBlend mode="normal" in2="shape" result="effect2_innerShadow_728_264"/>
</filter>
<filter id="filter2_di_728_264" x="44" y="17" width="61" height="56" filterUnits="userSpaceOnUse" color-interpolation-filters="sRGB">
<feFlood flood-opacity="0" result="BackgroundImageFix"/>
<feColorMatrix in="SourceAlpha" type="matrix" values="0 0 0 0 0 0 0 0 0 0 0 0 0 0 0 0 0 0 127 0" result="hardAlpha"/>
<feOffset dy="5"/>
<feGaussianBlur stdDeviation="8"/>
<feComposite in2="hardAlpha" operator="out"/>
<feColorMatrix type="matrix" values="0 0 0 0 0 0 0 0 0 0 0 0 0 0 0 0 0 0 0.14 0"/>
<feBlend mode="normal" in2="BackgroundImageFix" result="effect1_dropShadow_728_264"/>
<feBlend mode="normal" in="SourceGraphic" in2="effect1_dropShadow_728_264" result="shape"/>
<feColorMatrix in="SourceAlpha" type="matrix" values="0 0 0 0 0 0 0 0 0 0 0 0 0 0 0 0 0 0 127 0" result="hardAlpha"/>
<feOffset/>
<feGaussianBlur stdDeviation="5.5"/>
<feComposite in2="hardAlpha" operator="arithmetic" k2="-1" k3="1"/>
<feColorMatrix type="matrix" values="0 0 0 0 0.301961 0 0 0 0 0.368627 0 0 0 0 0.435294 0 0 0 0.08 0"/>
<feBlend mode="normal" in2="shape" result="effect2_innerShadow_728_264"/>
</filter>
<filter id="filter3_di_728_264" x="0" y="31" width="44" height="41" filterUnits="userSpaceOnUse" color-interpolation-filters="sRGB">
<feFlood flood-opacity="0" result="BackgroundImageFix"/>
<feColorMatrix in="SourceAlpha" type="matrix" values="0 0 0 0 0 0 0 0 0 0 0 0 0 0 0 0 0 0 127 0" result="hardAlpha"/>
<feOffset dy="3"/>
<feGaussianBlur stdDeviation="6"/>
<feComposite in2="hardAlpha" operator="out"/>
<feColorMatrix type="matrix" values="0 0 0 0 0.301961 0 0 0 0 0.368627 0 0 0 0 0.435294 0 0 0 0.14 0"/>
<feBlend mode="normal" in2="BackgroundImageFix" result="effect1_dropShadow_728_264"/>
<feBlend mode="normal" in="SourceGraphic" in2="effect1_dropShadow_728_264" result="shape"/>
<feColorMatrix in="SourceAlpha" type="matrix" values="0 0 0 0 0 0 0 0 0 0 0 0 0 0 0 0 0 0 127 0" result="hardAlpha"/>
<feOffset/>
<feGaussianBlur stdDeviation="2"/>
<feComposite in2="hardAlpha" operator="arithmetic" k2="-1" k3="1"/>
<feColorMatrix type="matrix" values="0 0 0 0 0.301961 0 0 0 0 0.368627 0 0 0 0 0.435294 0 0 0 0.11 0"/>
<feBlend mode="normal" in2="shape" result="effect2_innerShadow_728_264"/>
</filter>
<filter id="filter4_dii_728_264" x="16" y="57" width="21" height="21" filterUnits="userSpaceOnUse" color-interpolation-filters="sRGB">
<feFlood flood-opacity="0" result="BackgroundImageFix"/>
<feColorMatrix in="SourceAlpha" type="matrix" values="0 0 0 0 0 0 0 0 0 0 0 0 0 0 0 0 0 0 127 0" result="hardAlpha"/>
<feOffset dy="4"/>
<feGaussianBlur stdDeviation="4"/>
<feComposite in2="hardAlpha" operator="out"/>
<feColorMatrix type="matrix" values="0 0 0 0 0.282353 0 0 0 0 0.517647 0 0 0 0 0.933333 0 0 0 0.2 0"/>
<feBlend mode="normal" in2="BackgroundImageFix" result="effect1_dropShadow_728_264"/>
<feBlend mode="normal" in="SourceGraphic" in2="effect1_dropShadow_728_264" result="shape"/>
<feColorMatrix in="SourceAlpha" type="matrix" values="0 0 0 0 0 0 0 0 0 0 0 0 0 0 0 0 0 0 127 0" result="hardAlpha"/>
<feOffset/>
<feGaussianBlur stdDeviation="1"/>
<feComposite in2="hardAlpha" operator="arithmetic" k2="-1" k3="1"/>
<feColorMatrix type="matrix" values="0 0 0 0 0 0 0 0 0 0 0 0 0 0 0 0 0 0 0.25 0"/>
<feBlend mode="normal" in2="shape" result="effect2_innerShadow_728_264"/>
<feColorMatrix in="SourceAlpha" type="matrix" values="0 0 0 0 0 0 0 0 0 0 0 0 0 0 0 0 0 0 127 0" result="hardAlpha"/>
<feOffset dy="-1"/>
<feGaussianBlur stdDeviation="1"/>
<feComposite in2="hardAlpha" operator="arithmetic" k2="-1" k3="1"/>
<feColorMatrix type="matrix" values="0 0 0 0 0 0 0 0 0 0 0 0 0 0 0 0 0 0 0.25 0"/>
<feBlend mode="normal" in2="effect2_innerShadow_728_264" result="effect3_innerShadow_728_264"/>
</filter>
<filter id="filter5_dii_728_264" x="22" y="65" width="21" height="21" filterUnits="userSpaceOnUse" color-interpolation-filters="sRGB">
<feFlood flood-opacity="0" result="BackgroundImageFix"/>
<feColorMatrix in="SourceAlpha" type="matrix" values="0 0 0 0 0 0 0 0 0 0 0 0 0 0 0 0 0 0 127 0" result="hardAlpha"/>
<feOffset dy="4"/>
<feGaussianBlur stdDeviation="4"/>
<feComposite in2="hardAlpha" operator="out"/>
<feColorMatrix type="matrix" values="0 0 0 0 0.282353 0 0 0 0 0.517647 0 0 0 0 0.933333 0 0 0 0.2 0"/>
<feBlend mode="normal" in2="BackgroundImageFix" result="effect1_dropShadow_728_264"/>
<feBlend mode="normal" in="SourceGraphic" in2="effect1_dropShadow_728_264" result="shape"/>
<feColorMatrix in="SourceAlpha" type="matrix" values="0 0 0 0 0 0 0 0 0 0 0 0 0 0 0 0 0 0 127 0" result="hardAlpha"/>
<feOffset/>
<feGaussianBlur stdDeviation="1"/>
<feComposite in2="hardAlpha" operator="arithmetic" k2="-1" k3="1"/>
<feColorMatrix type="matrix" values="0 0 0 0 0 0 0 0 0 0 0 0 0 0 0 0 0 0 0.25 0"/>
<feBlend mode="normal" in2="shape" result="effect2_innerShadow_728_264"/>
<feColorMatrix in="SourceAlpha" type="matrix" values="0 0 0 0 0 0 0 0 0 0 0 0 0 0 0 0 0 0 127 0" result="hardAlpha"/>
<feOffset dy="-1"/>
<feGaussianBlur stdDeviation="1"/>
<feComposite in2="hardAlpha" operator="arithmetic" k2="-1" k3="1"/>
<feColorMatrix type="matrix" values="0 0 0 0 0 0 0 0 0 0 0 0 0 0 0 0 0 0 0.25 0"/>
<feBlend mode="normal" in2="effect2_innerShadow_728_264" result="effect3_innerShadow_728_264"/>
</filter>
<filter id="filter6_dii_728_264" x="33" y="58" width="21" height="21" filterUnits="userSpaceOnUse" color-interpolation-filters="sRGB">
<feFlood flood-opacity="0" result="BackgroundImageFix"/>
<feColorMatrix in="SourceAlpha" type="matrix" values="0 0 0 0 0 0 0 0 0 0 0 0 0 0 0 0 0 0 127 0" result="hardAlpha"/>
<feOffset dy="4"/>
<feGaussianBlur stdDeviation="4"/>
<feComposite in2="hardAlpha" operator="out"/>
<feColorMatrix type="matrix" values="0 0 0 0 0.282353 0 0 0 0 0.517647 0 0 0 0 0.933333 0 0 0 0.2 0"/>
<feBlend mode="normal" in2="BackgroundImageFix" result="effect1_dropShadow_728_264"/>
<feBlend mode="normal" in="SourceGraphic" in2="effect1_dropShadow_728_264" result="shape"/>
<feColorMatrix in="SourceAlpha" type="matrix" values="0 0 0 0 0 0 0 0 0 0 0 0 0 0 0 0 0 0 127 0" result="hardAlpha"/>
<feOffset/>
<feGaussianBlur stdDeviation="1"/>
<feComposite in2="hardAlpha" operator="arithmetic" k2="-1" k3="1"/>
<feColorMatrix type="matrix" values="0 0 0 0 0 0 0 0 0 0 0 0 0 0 0 0 0 0 0.25 0"/>
<feBlend mode="normal" in2="shape" result="effect2_innerShadow_728_264"/>
<feColorMatrix in="SourceAlpha" type="matrix" values="0 0 0 0 0 0 0 0 0 0 0 0 0 0 0 0 0 0 127 0" result="hardAlpha"/>
<feOffset dy="-1"/>
<feGaussianBlur stdDeviation="1"/>
<feComposite in2="hardAlpha" operator="arithmetic" k2="-1" k3="1"/>
<feColorMatrix type="matrix" values="0 0 0 0 0 0 0 0 0 0 0 0 0 0 0 0 0 0 0.25 0"/>
<feBlend mode="normal" in2="effect2_innerShadow_728_264" result="effect3_innerShadow_728_264"/>
</filter>
<filter id="filter7_dii_728_264" x="38" y="66" width="21" height="21" filterUnits="userSpaceOnUse" color-interpolation-filters="sRGB">
<feFlood flood-opacity="0" result="BackgroundImageFix"/>
<feColorMatrix in="SourceAlpha" type="matrix" values="0 0 0 0 0 0 0 0 0 0 0 0 0 0 0 0 0 0 127 0" result="hardAlpha"/>
<feOffset dy="4"/>
<feGaussianBlur stdDeviation="4"/>
<feComposite in2="hardAlpha" operator="out"/>
<feColorMatrix type="matrix" values="0 0 0 0 0.282353 0 0 0 0 0.517647 0 0 0 0 0.933333 0 0 0 0.2 0"/>
<feBlend mode="normal" in2="BackgroundImageFix" result="effect1_dropShadow_728_264"/>
<feBlend mode="normal" in="SourceGraphic" in2="effect1_dropShadow_728_264" result="shape"/>
<feColorMatrix in="SourceAlpha" type="matrix" values="0 0 0 0 0 0 0 0 0 0 0 0 0 0 0 0 0 0 127 0" result="hardAlpha"/>
<feOffset/>
<feGaussianBlur stdDeviation="1"/>
<feComposite in2="hardAlpha" operator="arithmetic" k2="-1" k3="1"/>
<feColorMatrix type="matrix" values="0 0 0 0 0 0 0 0 0 0 0 0 0 0 0 0 0 0 0.25 0"/>
<feBlend mode="normal" in2="shape" result="effect2_innerShadow_728_264"/>
<feColorMatrix in="SourceAlpha" type="matrix" values="0 0 0 0 0 0 0 0 0 0 0 0 0 0 0 0 0 0 127 0" result="hardAlpha"/>
<feOffset dy="-1"/>
<feGaussianBlur stdDeviation="1"/>
<feComposite in2="hardAlpha" operator="arithmetic" k2="-1" k3="1"/>
<feColorMatrix type="matrix" values="0 0 0 0 0 0 0 0 0 0 0 0 0 0 0 0 0 0 0.25 0"/>
<feBlend mode="normal" in2="effect2_innerShadow_728_264" result="effect3_innerShadow_728_264"/>
</filter>
<filter id="filter8_dii_728_264" x="50" y="58" width="21" height="21" filterUnits="userSpaceOnUse" color-interpolation-filters="sRGB">
<feFlood flood-opacity="0" result="BackgroundImageFix"/>
<feColorMatrix in="SourceAlpha" type="matrix" values="0 0 0 0 0 0 0 0 0 0 0 0 0 0 0 0 0 0 127 0" result="hardAlpha"/>
<feOffset dy="4"/>
<feGaussianBlur stdDeviation="4"/>
<feComposite in2="hardAlpha" operator="out"/>
<feColorMatrix type="matrix" values="0 0 0 0 0.282353 0 0 0 0 0.517647 0 0 0 0 0.933333 0 0 0 0.2 0"/>
<feBlend mode="normal" in2="BackgroundImageFix" result="effect1_dropShadow_728_264"/>
<feBlend mode="normal" in="SourceGraphic" in2="effect1_dropShadow_728_264" result="shape"/>
<feColorMatrix in="SourceAlpha" type="matrix" values="0 0 0 0 0 0 0 0 0 0 0 0 0 0 0 0 0 0 127 0" result="hardAlpha"/>
<feOffset/>
<feGaussianBlur stdDeviation="1"/>
<feComposite in2="hardAlpha" operator="arithmetic" k2="-1" k3="1"/>
<feColorMatrix type="matrix" values="0 0 0 0 0 0 0 0 0 0 0 0 0 0 0 0 0 0 0.25 0"/>
<feBlend mode="normal" in2="shape" result="effect2_innerShadow_728_264"/>
<feColorMatrix in="SourceAlpha" type="matrix" values="0 0 0 0 0 0 0 0 0 0 0 0 0 0 0 0 0 0 127 0" result="hardAlpha"/>
<feOffset dy="-1"/>
<feGaussianBlur stdDeviation="1"/>
<feComposite in2="hardAlpha" operator="arithmetic" k2="-1" k3="1"/>
<feColorMatrix type="matrix" values="0 0 0 0 0 0 0 0 0 0 0 0 0 0 0 0 0 0 0.25 0"/>
<feBlend mode="normal" in2="effect2_innerShadow_728_264" result="effect3_innerShadow_728_264"/>
</filter>
<radialGradient id="paint0_radial_728_264" cx="0" cy="0" r="1" gradientUnits="userSpaceOnUse" gradientTransform="translate(33 18.2376) rotate(50.7106) scale(28.4253 19.8578)">
<stop stop-color="#FBCA1C"/>
<stop offset="1" stop-color="#E4750E"/>
</radialGradient>
<radialGradient id="paint1_radial_728_264" cx="0" cy="0" r="1" gradientUnits="userSpaceOnUse" gradientTransform="translate(-264.5 -202) rotate(121.827) scale(51.1981 81.1678)">
<stop stop-opacity="0"/>
<stop offset="1" stop-color="#4D5E6F"/>
</radialGradient>
<linearGradient id="paint2_linear_728_264" x1="-288.5" y1="-203.5" x2="-262" y2="-166" gradientUnits="userSpaceOnUse">
<stop stop-color="white"/>
<stop offset="1" stop-color="#BDBABA"/>
</linearGradient>
<radialGradient id="paint3_radial_728_264" cx="0" cy="0" r="1" gradientUnits="userSpaceOnUse" gradientTransform="translate(56.5 18) rotate(49.5378) scale(44.6878 30.2267)">
<stop stop-color="#4D5E6F" stop-opacity="0"/>
<stop offset="1" stop-color="#4D5E6F" stop-opacity="0.54"/>
</radialGradient>
<radialGradient id="paint4_radial_728_264" cx="0" cy="0" r="1" gradientUnits="userSpaceOnUse" gradientTransform="translate(22 36) rotate(90) scale(23 27.0588)">
<stop stop-color="#4D5E6F" stop-opacity="0"/>
<stop offset="1" stop-color="#4D5E6F" stop-opacity="0.62"/>
</radialGradient>
</defs>
</svg>
