<svg width="39" height="37" viewBox="0 0 39 37" fill="none" xmlns="http://www.w3.org/2000/svg">
<g filter="url(#filter0_di_728_99)">
<path d="M25.4216 20.2302C25.4216 20.1661 25.3943 20.1046 25.3456 20.0592C25.297 20.0139 25.231 19.9884 25.1623 19.9884C25.0935 19.9884 25.0275 20.0139 24.9789 20.0592C24.9303 20.1046 24.9029 20.1661 24.9029 20.2302V20.4629L24.7333 20.3792C24.7032 20.3644 24.6703 20.3552 24.6364 20.3522C24.6025 20.3492 24.5683 20.3525 24.5357 20.3619C24.5032 20.3712 24.4729 20.3865 24.4467 20.4067C24.4205 20.427 24.3988 20.4519 24.3829 20.48C24.3669 20.508 24.3571 20.5388 24.3539 20.5704C24.3507 20.602 24.3543 20.6339 24.3643 20.6643C24.3743 20.6946 24.3907 20.7228 24.4124 20.7473C24.4341 20.7717 24.4608 20.792 24.4909 20.8068L24.9029 21.01V21.47C24.7204 21.5141 24.5542 21.6037 24.4221 21.7293L23.9948 21.499L24.0122 21.0647C24.0147 21.0005 23.9898 20.9381 23.943 20.8911C23.8962 20.8441 23.8313 20.8163 23.7626 20.814C23.6938 20.8116 23.6269 20.8348 23.5765 20.8784C23.5261 20.9221 23.4963 20.9826 23.4938 21.0468L23.4868 21.2255L23.2708 21.1094C23.2412 21.0924 23.2083 21.081 23.174 21.0761C23.1397 21.0711 23.1047 21.0726 23.0711 21.0805C23.0374 21.0884 23.0058 21.1025 22.9781 21.1221C22.9504 21.1416 22.9271 21.1661 22.9098 21.1941C22.8924 21.2221 22.8813 21.2531 22.877 21.2853C22.8727 21.3174 22.8754 21.35 22.8849 21.3811C22.8943 21.4123 22.9104 21.4413 22.9322 21.4666C22.9539 21.4918 22.9809 21.5127 23.0114 21.5281L23.2274 21.6444L23.0649 21.7397C23.0081 21.7744 22.9683 21.8286 22.9539 21.8904C22.9395 21.9523 22.9516 22.0169 22.9877 22.0705C23.0238 22.1241 23.081 22.1623 23.147 22.177C23.213 22.1917 23.2826 22.1817 23.3408 22.1492L23.7355 21.9179L24.1626 22.1479C24.1121 22.3174 24.1121 22.4965 24.1626 22.666L23.7355 22.8958L23.3408 22.6648C23.2826 22.6322 23.213 22.6222 23.147 22.6369C23.081 22.6516 23.0238 22.6899 22.9877 22.7435C22.9516 22.797 22.9395 22.8617 22.9539 22.9235C22.9683 22.9854 23.0081 23.0395 23.0649 23.0743L23.2274 23.1696L23.0114 23.2857C22.9819 23.3015 22.9561 23.3227 22.9353 23.3479C22.9146 23.3731 22.8993 23.4019 22.8905 23.4325C22.8817 23.4632 22.8794 23.4953 22.8839 23.5268C22.8883 23.5583 22.8994 23.5886 22.9164 23.6162C22.9334 23.6437 22.9561 23.6678 22.9831 23.6872C23.0101 23.7065 23.041 23.7207 23.0739 23.7289C23.1068 23.7372 23.1411 23.7393 23.1749 23.7351C23.2087 23.731 23.2412 23.7207 23.2708 23.7048L23.4865 23.5885L23.4938 23.7674C23.4951 23.7992 23.503 23.8304 23.5172 23.8593C23.5314 23.8881 23.5516 23.9141 23.5766 23.9357C23.6015 23.9573 23.6308 23.9741 23.6628 23.9852C23.6947 23.9962 23.7287 24.0013 23.7627 24.0001C23.7967 23.9989 23.8302 23.9915 23.8611 23.9782C23.8921 23.965 23.92 23.9462 23.9431 23.9229C23.9663 23.8996 23.9843 23.8723 23.9962 23.8425C24.008 23.8127 24.0134 23.781 24.0122 23.7493L23.9948 23.3149L24.4221 23.0847C24.5542 23.2102 24.7204 23.2999 24.9029 23.3439V23.804L24.4909 24.0071C24.4301 24.0371 24.3845 24.0884 24.3643 24.1497C24.344 24.211 24.3507 24.2773 24.3829 24.334C24.415 24.3907 24.47 24.4332 24.5357 24.4521C24.6015 24.471 24.6725 24.4647 24.7333 24.4347L24.9029 24.3511V24.5837C24.9029 24.6479 24.9303 24.7094 24.9789 24.7547C25.0275 24.8001 25.0935 24.8256 25.1623 24.8256C25.231 24.8256 25.297 24.8001 25.3456 24.7547C25.3943 24.7094 25.4216 24.6479 25.4216 24.5837V24.3511L25.5912 24.4347C25.652 24.4647 25.7231 24.471 25.7888 24.4521C25.8545 24.4332 25.9095 24.3907 25.9417 24.334C25.9738 24.2773 25.9805 24.211 25.9602 24.1497C25.94 24.0884 25.8944 24.0371 25.8336 24.0071L25.4216 23.804V23.3439C25.6041 23.3 25.7703 23.2104 25.9024 23.0849L26.3297 23.3149L26.3124 23.7493C26.3111 23.781 26.3165 23.8127 26.3284 23.8425C26.3402 23.8723 26.3582 23.8996 26.3814 23.9229C26.4046 23.9462 26.4324 23.965 26.4634 23.9782C26.4943 23.9915 26.5278 23.9989 26.5618 24.0001C26.5959 24.0013 26.6298 23.9962 26.6618 23.9852C26.6937 23.9741 26.723 23.9573 26.7479 23.9357C26.7729 23.9141 26.7931 23.8881 26.8073 23.8593C26.8215 23.8304 26.8295 23.7992 26.8307 23.7674L26.8377 23.5885L27.0538 23.7048C27.0833 23.7209 27.1159 23.7315 27.1498 23.7358C27.1837 23.7401 27.2181 23.7381 27.2512 23.73C27.2843 23.7218 27.3153 23.7077 27.3424 23.6883C27.3696 23.6689 27.3924 23.6447 27.4095 23.6171C27.4266 23.5895 27.4377 23.559 27.4421 23.5273C27.4465 23.4957 27.4441 23.4636 27.4352 23.4328C27.4262 23.402 27.4108 23.3732 27.3899 23.348C27.3689 23.3228 27.3428 23.3017 27.3131 23.2859L27.0973 23.1698L27.2597 23.0745C27.3179 23.0404 27.3592 22.9861 27.3746 22.9235C27.3899 22.861 27.3779 22.7953 27.3413 22.741C27.3048 22.6867 27.2465 22.6481 27.1795 22.6338C27.1124 22.6195 27.042 22.6307 26.9837 22.6648L26.5891 22.896L26.1619 22.6663C26.2125 22.4967 26.2125 22.3175 26.1619 22.1479L26.5891 21.9179L26.9837 22.1492C27.042 22.1833 27.1124 22.1944 27.1795 22.1801C27.2465 22.1658 27.3048 22.1273 27.3413 22.073C27.3779 22.0186 27.3899 21.953 27.3746 21.8904C27.3592 21.8279 27.3179 21.7736 27.2597 21.7394L27.0971 21.6444L27.3131 21.5281C27.3428 21.5123 27.3689 21.4912 27.3899 21.466C27.4108 21.4408 27.4262 21.412 27.4352 21.3812C27.4441 21.3504 27.4465 21.3183 27.4421 21.2866C27.4377 21.255 27.4266 21.2245 27.4095 21.1969C27.3924 21.1692 27.3696 21.1451 27.3424 21.1257C27.3153 21.1063 27.2843 21.0921 27.2512 21.084C27.2181 21.0758 27.1837 21.0739 27.1498 21.0782C27.1159 21.0825 27.0833 21.093 27.0538 21.1092L26.8377 21.2252L26.8307 21.0465C26.8295 21.0148 26.8215 20.9836 26.8073 20.9547C26.7931 20.9258 26.7729 20.8998 26.7479 20.8782C26.723 20.8566 26.6937 20.8398 26.6618 20.8288C26.6298 20.8177 26.5959 20.8127 26.5618 20.8138C26.5278 20.815 26.4943 20.8225 26.4634 20.8357C26.4324 20.849 26.4046 20.8678 26.3814 20.8911C26.3582 20.9143 26.3402 20.9417 26.3284 20.9715C26.3165 21.0012 26.3111 21.0329 26.3124 21.0647L26.3297 21.499L25.9024 21.729C25.7703 21.6036 25.6041 21.514 25.4216 21.47V21.01L25.8336 20.8068C25.8944 20.7768 25.94 20.7256 25.9602 20.6643C25.9805 20.603 25.9738 20.5367 25.9417 20.48C25.9095 20.4232 25.8545 20.3808 25.7888 20.3619C25.7231 20.343 25.652 20.3492 25.5912 20.3792L25.4216 20.4629V20.2302Z" fill="url(#paint0_linear_728_99)"/>
<path d="M18.6716 23.4047C18.6716 23.3405 18.6443 23.279 18.5956 23.2336C18.547 23.1883 18.481 23.1628 18.4123 23.1628C18.3435 23.1628 18.2775 23.1883 18.2289 23.2336C18.1803 23.279 18.1529 23.3405 18.1529 23.4047V23.6373L17.9833 23.5536C17.9532 23.5388 17.9203 23.5296 17.8864 23.5266C17.8525 23.5237 17.8183 23.527 17.7857 23.5363C17.7532 23.5457 17.7229 23.5609 17.6967 23.5812C17.6705 23.6014 17.6488 23.6263 17.6329 23.6544C17.6169 23.6824 17.6071 23.7132 17.6039 23.7448C17.6007 23.7764 17.6043 23.8083 17.6143 23.8387C17.6243 23.869 17.6407 23.8972 17.6624 23.9217C17.6841 23.9462 17.7108 23.9664 17.7409 23.9812L18.1529 24.1844V24.6444C17.9704 24.6885 17.8042 24.7781 17.6721 24.9037L17.2448 24.6735L17.2622 24.2391C17.2647 24.175 17.2398 24.1125 17.193 24.0655C17.1462 24.0185 17.0813 23.9908 17.0126 23.9884C16.9438 23.986 16.8769 24.0092 16.8265 24.0529C16.7761 24.0965 16.7463 24.1571 16.7438 24.2212L16.7368 24.3999L16.5208 24.2838C16.4912 24.2668 16.4583 24.2554 16.424 24.2505C16.3897 24.2455 16.3547 24.247 16.3211 24.2549C16.2874 24.2628 16.2558 24.277 16.2281 24.2965C16.2004 24.316 16.1771 24.3405 16.1598 24.3685C16.1424 24.3965 16.1313 24.4275 16.127 24.4597C16.1227 24.4918 16.1254 24.5244 16.1349 24.5555C16.1443 24.5867 16.1604 24.6157 16.1822 24.641C16.2039 24.6662 16.2309 24.6871 16.2614 24.7025L16.4774 24.8188L16.3149 24.9141C16.2581 24.9489 16.2183 25.003 16.2039 25.0648C16.1895 25.1267 16.2016 25.1913 16.2377 25.2449C16.2738 25.2985 16.331 25.3368 16.397 25.3515C16.463 25.3662 16.5326 25.3562 16.5908 25.3236L16.9855 25.0924L17.4126 25.3224C17.3621 25.4918 17.3621 25.6709 17.4126 25.8404L16.9855 26.0702L16.5908 25.8392C16.5326 25.8066 16.463 25.7966 16.397 25.8113C16.331 25.826 16.2738 25.8643 16.2377 25.9179C16.2016 25.9715 16.1895 26.0361 16.2039 26.098C16.2183 26.1598 16.2581 26.2139 16.3149 26.2487L16.4774 26.344L16.2614 26.4601C16.2319 26.476 16.2061 26.4971 16.1853 26.5223C16.1646 26.5475 16.1493 26.5763 16.1405 26.607C16.1317 26.6377 16.1294 26.6697 16.1339 26.7012C16.1383 26.7327 16.1494 26.7631 16.1664 26.7906C16.1834 26.8181 16.2061 26.8422 16.2331 26.8616C16.2601 26.8809 16.291 26.8951 16.3239 26.9033C16.3568 26.9116 16.3911 26.9137 16.4249 26.9095C16.4587 26.9054 16.4912 26.8951 16.5208 26.8792L16.7365 26.7629L16.7438 26.9419C16.7451 26.9736 16.753 27.0048 16.7672 27.0337C16.7814 27.0626 16.8016 27.0885 16.8266 27.1101C16.8515 27.1317 16.8808 27.1486 16.9128 27.1596C16.9447 27.1706 16.9787 27.1757 17.0127 27.1745C17.0467 27.1733 17.0802 27.1659 17.1111 27.1527C17.1421 27.1394 17.17 27.1206 17.1931 27.0973C17.2163 27.074 17.2343 27.0467 17.2462 27.0169C17.258 26.9871 17.2634 26.9555 17.2622 26.9237L17.2448 26.4893L17.6721 26.2591C17.8042 26.3847 17.9704 26.4743 18.1529 26.5184V26.9784L17.7409 27.1815C17.6801 27.2115 17.6345 27.2628 17.6143 27.3241C17.594 27.3854 17.6007 27.4517 17.6329 27.5084C17.665 27.5651 17.72 27.6076 17.7857 27.6265C17.8515 27.6454 17.9225 27.6391 17.9833 27.6092L18.1529 27.5255V27.7581C18.1529 27.8223 18.1803 27.8838 18.2289 27.9292C18.2775 27.9745 18.3435 28 18.4123 28C18.481 28 18.547 27.9745 18.5956 27.9292C18.6443 27.8838 18.6716 27.8223 18.6716 27.7581V27.5255L18.8412 27.6092C18.902 27.6391 18.9731 27.6454 19.0388 27.6265C19.1045 27.6076 19.1595 27.5651 19.1917 27.5084C19.2238 27.4517 19.2305 27.3854 19.2102 27.3241C19.19 27.2628 19.1444 27.2115 19.0836 27.1815L18.6716 26.9784V26.5184C18.8541 26.4744 19.0203 26.3848 19.1524 26.2593L19.5797 26.4893L19.5624 26.9237C19.5611 26.9555 19.5665 26.9871 19.5784 27.0169C19.5902 27.0467 19.6082 27.074 19.6314 27.0973C19.6546 27.1206 19.6824 27.1394 19.7134 27.1527C19.7443 27.1659 19.7778 27.1733 19.8118 27.1745C19.8459 27.1757 19.8798 27.1706 19.9117 27.1596C19.9437 27.1486 19.973 27.1317 19.9979 27.1101C20.0229 27.0885 20.0431 27.0626 20.0573 27.0337C20.0715 27.0048 20.0795 26.9736 20.0807 26.9419L20.0877 26.7629L20.3038 26.8792C20.3333 26.8953 20.3659 26.9059 20.3998 26.9102C20.4337 26.9145 20.4681 26.9125 20.5012 26.9044C20.5343 26.8962 20.5653 26.8821 20.5924 26.8627C20.6196 26.8433 20.6424 26.8191 20.6595 26.7915C20.6766 26.7639 20.6877 26.7334 20.6921 26.7017C20.6965 26.6701 20.6941 26.638 20.6852 26.6072C20.6762 26.5764 20.6608 26.5476 20.6399 26.5224C20.6189 26.4972 20.5928 26.4761 20.5631 26.4603L20.3473 26.3442L20.5097 26.2489C20.5679 26.2148 20.6092 26.1605 20.6246 26.0979C20.6399 26.0354 20.6279 25.9697 20.5913 25.9154C20.5548 25.8611 20.4965 25.8225 20.4295 25.8082C20.3624 25.7939 20.292 25.8051 20.2337 25.8392L19.8391 26.0704L19.4119 25.8407C19.4625 25.6711 19.4625 25.4919 19.4119 25.3224L19.8391 25.0924L20.2337 25.3236C20.292 25.3577 20.3624 25.3688 20.4295 25.3546C20.4965 25.3403 20.5548 25.3017 20.5913 25.2474C20.6279 25.1931 20.6399 25.1274 20.6246 25.0648C20.6092 25.0023 20.5679 24.948 20.5097 24.9139L20.3471 24.8188L20.5631 24.7025C20.5928 24.6867 20.6189 24.6656 20.6399 24.6404C20.6608 24.6152 20.6762 24.5864 20.6852 24.5556C20.6941 24.5248 20.6965 24.4927 20.6921 24.461C20.6877 24.4294 20.6766 24.3989 20.6595 24.3713C20.6424 24.3437 20.6196 24.3195 20.5924 24.3001C20.5653 24.2807 20.5343 24.2665 20.5012 24.2584C20.4681 24.2502 20.4337 24.2483 20.3998 24.2526C20.3659 24.2569 20.3333 24.2674 20.3038 24.2836L20.0877 24.3997L20.0807 24.2209C20.0795 24.1892 20.0715 24.158 20.0573 24.1291C20.0431 24.1002 20.0229 24.0743 19.9979 24.0527C19.973 24.031 19.9437 24.0142 19.9117 24.0032C19.8798 23.9921 19.8459 23.9871 19.8118 23.9883C19.7778 23.9895 19.7443 23.9969 19.7134 24.0101C19.6824 24.0234 19.6546 24.0422 19.6314 24.0655C19.6082 24.0888 19.5902 24.1161 19.5784 24.1459C19.5665 24.1757 19.5611 24.2073 19.5624 24.2391L19.5797 24.6735L19.1524 24.9035C19.0203 24.778 18.8541 24.6884 18.6716 24.6444V24.1844L19.0836 23.9812C19.1444 23.9513 19.19 23.9 19.2102 23.8387C19.2305 23.7774 19.2238 23.7111 19.1917 23.6544C19.1595 23.5977 19.1045 23.5552 19.0388 23.5363C18.9731 23.5174 18.902 23.5236 18.8412 23.5536L18.6716 23.6373V23.4047Z" fill="url(#paint1_linear_728_99)"/>
<path d="M13.0466 20.2302C13.0466 20.1661 13.0193 20.1046 12.9706 20.0592C12.922 20.0139 12.856 19.9884 12.7873 19.9884C12.7185 19.9884 12.6525 20.0139 12.6039 20.0592C12.5553 20.1046 12.5279 20.1661 12.5279 20.2302V20.4629L12.3583 20.3792C12.3282 20.3644 12.2953 20.3552 12.2614 20.3522C12.2275 20.3492 12.1933 20.3525 12.1607 20.3619C12.1282 20.3712 12.0979 20.3865 12.0717 20.4067C12.0455 20.427 12.0238 20.4519 12.0079 20.48C11.9919 20.508 11.9821 20.5388 11.9789 20.5704C11.9757 20.602 11.9793 20.6339 11.9893 20.6643C11.9993 20.6946 12.0157 20.7228 12.0374 20.7473C12.0591 20.7717 12.0858 20.792 12.1159 20.8068L12.5279 21.01V21.47C12.3454 21.5141 12.1792 21.6037 12.0471 21.7293L11.6198 21.499L11.6372 21.0647C11.6397 21.0005 11.6148 20.9381 11.568 20.8911C11.5212 20.8441 11.4563 20.8163 11.3876 20.814C11.3188 20.8116 11.2519 20.8348 11.2015 20.8784C11.1511 20.9221 11.1213 20.9826 11.1188 21.0468L11.1118 21.2255L10.8958 21.1094C10.8662 21.0924 10.8333 21.081 10.799 21.0761C10.7647 21.0711 10.7297 21.0726 10.6961 21.0805C10.6624 21.0884 10.6308 21.1025 10.6031 21.1221C10.5754 21.1416 10.5521 21.1661 10.5348 21.1941C10.5174 21.2221 10.5063 21.2531 10.502 21.2853C10.4977 21.3174 10.5004 21.35 10.5099 21.3811C10.5193 21.4123 10.5354 21.4413 10.5572 21.4666C10.5789 21.4918 10.6059 21.5127 10.6364 21.5281L10.8524 21.6444L10.6899 21.7397C10.6331 21.7744 10.5933 21.8286 10.5789 21.8904C10.5645 21.9523 10.5766 22.0169 10.6127 22.0705C10.6488 22.1241 10.706 22.1623 10.772 22.177C10.838 22.1917 10.9076 22.1817 10.9658 22.1492L11.3605 21.9179L11.7876 22.1479C11.7371 22.3174 11.7371 22.4965 11.7876 22.666L11.3605 22.8958L10.9658 22.6648C10.9076 22.6322 10.838 22.6222 10.772 22.6369C10.706 22.6516 10.6488 22.6899 10.6127 22.7435C10.5766 22.797 10.5645 22.8617 10.5789 22.9235C10.5933 22.9854 10.6331 23.0395 10.6899 23.0743L10.8524 23.1696L10.6364 23.2857C10.6069 23.3015 10.5811 23.3227 10.5603 23.3479C10.5396 23.3731 10.5243 23.4019 10.5155 23.4325C10.5067 23.4632 10.5044 23.4953 10.5089 23.5268C10.5133 23.5583 10.5244 23.5886 10.5414 23.6162C10.5584 23.6437 10.5811 23.6678 10.6081 23.6872C10.6351 23.7065 10.666 23.7207 10.6989 23.7289C10.7318 23.7372 10.7661 23.7393 10.7999 23.7351C10.8337 23.731 10.8662 23.7207 10.8958 23.7048L11.1115 23.5885L11.1188 23.7674C11.1201 23.7992 11.128 23.8304 11.1422 23.8593C11.1564 23.8881 11.1766 23.9141 11.2016 23.9357C11.2265 23.9573 11.2558 23.9741 11.2878 23.9852C11.3197 23.9962 11.3537 24.0013 11.3877 24.0001C11.4217 23.9989 11.4552 23.9915 11.4861 23.9782C11.5171 23.965 11.545 23.9462 11.5681 23.9229C11.5913 23.8996 11.6093 23.8723 11.6212 23.8425C11.633 23.8127 11.6384 23.781 11.6372 23.7493L11.6198 23.3149L12.0471 23.0847C12.1792 23.2102 12.3454 23.2999 12.5279 23.3439V23.804L12.1159 24.0071C12.0551 24.0371 12.0095 24.0884 11.9893 24.1497C11.969 24.211 11.9757 24.2773 12.0079 24.334C12.04 24.3907 12.095 24.4332 12.1607 24.4521C12.2265 24.471 12.2975 24.4647 12.3583 24.4347L12.5279 24.3511V24.5837C12.5279 24.6479 12.5553 24.7094 12.6039 24.7547C12.6525 24.8001 12.7185 24.8256 12.7873 24.8256C12.856 24.8256 12.922 24.8001 12.9706 24.7547C13.0193 24.7094 13.0466 24.6479 13.0466 24.5837V24.3511L13.2162 24.4347C13.277 24.4647 13.3481 24.471 13.4138 24.4521C13.4795 24.4332 13.5345 24.3907 13.5667 24.334C13.5988 24.2773 13.6055 24.211 13.5852 24.1497C13.565 24.0884 13.5194 24.0371 13.4586 24.0071L13.0466 23.804V23.3439C13.2291 23.3 13.3953 23.2104 13.5274 23.0849L13.9547 23.3149L13.9374 23.7493C13.9361 23.781 13.9415 23.8127 13.9534 23.8425C13.9652 23.8723 13.9832 23.8996 14.0064 23.9229C14.0296 23.9462 14.0574 23.965 14.0884 23.9782C14.1193 23.9915 14.1528 23.9989 14.1868 24.0001C14.2209 24.0013 14.2548 23.9962 14.2867 23.9852C14.3187 23.9741 14.348 23.9573 14.3729 23.9357C14.3979 23.9141 14.4181 23.8881 14.4323 23.8593C14.4465 23.8304 14.4545 23.7992 14.4557 23.7674L14.4627 23.5885L14.6788 23.7048C14.7083 23.7209 14.7409 23.7315 14.7748 23.7358C14.8087 23.7401 14.8431 23.7381 14.8762 23.73C14.9093 23.7218 14.9403 23.7077 14.9674 23.6883C14.9946 23.6689 15.0174 23.6447 15.0345 23.6171C15.0516 23.5895 15.0627 23.559 15.0671 23.5273C15.0715 23.4957 15.0691 23.4636 15.0602 23.4328C15.0512 23.402 15.0358 23.3732 15.0149 23.348C14.9939 23.3228 14.9678 23.3017 14.9381 23.2859L14.7223 23.1698L14.8847 23.0745C14.9429 23.0404 14.9842 22.9861 14.9996 22.9235C15.0149 22.861 15.0029 22.7953 14.9663 22.741C14.9298 22.6867 14.8715 22.6481 14.8045 22.6338C14.7374 22.6195 14.667 22.6307 14.6087 22.6648L14.2141 22.896L13.7869 22.6663C13.8375 22.4967 13.8375 22.3175 13.7869 22.1479L14.2141 21.9179L14.6087 22.1492C14.667 22.1833 14.7374 22.1944 14.8045 22.1801C14.8715 22.1658 14.9298 22.1273 14.9663 22.073C15.0029 22.0186 15.0149 21.953 14.9996 21.8904C14.9842 21.8279 14.9429 21.7736 14.8847 21.7394L14.7221 21.6444L14.9381 21.5281C14.9678 21.5123 14.9939 21.4912 15.0149 21.466C15.0358 21.4408 15.0512 21.412 15.0602 21.3812C15.0691 21.3504 15.0715 21.3183 15.0671 21.2866C15.0627 21.255 15.0516 21.2245 15.0345 21.1969C15.0174 21.1692 14.9946 21.1451 14.9674 21.1257C14.9403 21.1063 14.9093 21.0921 14.8762 21.084C14.8431 21.0758 14.8087 21.0739 14.7748 21.0782C14.7409 21.0825 14.7083 21.093 14.6788 21.1092L14.4627 21.2252L14.4557 21.0465C14.4545 21.0148 14.4465 20.9836 14.4323 20.9547C14.4181 20.9258 14.3979 20.8998 14.3729 20.8782C14.348 20.8566 14.3187 20.8398 14.2867 20.8288C14.2548 20.8177 14.2209 20.8127 14.1868 20.8138C14.1528 20.815 14.1193 20.8225 14.0884 20.8357C14.0574 20.849 14.0296 20.8678 14.0064 20.8911C13.9832 20.9143 13.9652 20.9417 13.9534 20.9715C13.9415 21.0012 13.9361 21.0329 13.9374 21.0647L13.9547 21.499L13.5274 21.729C13.3953 21.6036 13.2291 21.514 13.0466 21.47V21.01L13.4586 20.8068C13.5194 20.7768 13.565 20.7256 13.5852 20.6643C13.6055 20.603 13.5988 20.5367 13.5667 20.48C13.5345 20.4232 13.4795 20.3808 13.4138 20.3619C13.3481 20.343 13.277 20.3492 13.2162 20.3792L13.0466 20.4629V20.2302Z" fill="url(#paint2_linear_728_99)"/>
<path d="M32.988 9.25581C32.9959 9.12243 33 8.98803 33 8.85271C33 5.06806 29.8384 2 25.9385 2C24.0618 2 22.3561 2.71041 21.0914 3.86924C20.4517 3.70175 19.7789 3.6124 19.0846 3.6124C16.5734 3.6124 14.3436 4.78127 12.9413 6.58894C12.5139 6.48775 12.0672 6.43411 11.6077 6.43411C8.51064 6.43411 6 8.87051 6 11.876C6 11.89 6.00005 11.904 6.00015 11.918C6.00005 11.9278 6 11.9376 6 11.9475C6 15.5813 9.03557 18.5271 12.7801 18.5271H23.4462C28.7226 18.5271 33 14.3762 33 9.25581H32.988Z" fill="white"/>
<path d="M32.988 9.25581C32.9959 9.12243 33 8.98803 33 8.85271C33 5.06806 29.8384 2 25.9385 2C24.0618 2 22.3561 2.71041 21.0914 3.86924C20.4517 3.70175 19.7789 3.6124 19.0846 3.6124C16.5734 3.6124 14.3436 4.78127 12.9413 6.58894C12.5139 6.48775 12.0672 6.43411 11.6077 6.43411C8.51064 6.43411 6 8.87051 6 11.876C6 11.89 6.00005 11.904 6.00015 11.918C6.00005 11.9278 6 11.9376 6 11.9475C6 15.5813 9.03557 18.5271 12.7801 18.5271H23.4462C28.7226 18.5271 33 14.3762 33 9.25581H32.988Z" fill="url(#paint3_radial_728_99)" fill-opacity="0.2"/>
</g>
<defs>
<filter id="filter0_di_728_99" x="0.666673" y="2.38419e-06" width="37.6667" height="36.6667" filterUnits="userSpaceOnUse" color-interpolation-filters="sRGB">
<feFlood flood-opacity="0" result="BackgroundImageFix"/>
<feColorMatrix in="SourceAlpha" type="matrix" values="0 0 0 0 0 0 0 0 0 0 0 0 0 0 0 0 0 0 127 0" result="hardAlpha"/>
<feOffset dy="3.33333"/>
<feGaussianBlur stdDeviation="2.66666"/>
<feComposite in2="hardAlpha" operator="out"/>
<feColorMatrix type="matrix" values="0 0 0 0 0.301961 0 0 0 0 0.368627 0 0 0 0 0.435294 0 0 0 0.08 0"/>
<feBlend mode="normal" in2="BackgroundImageFix" result="effect1_dropShadow_728_99"/>
<feBlend mode="normal" in="SourceGraphic" in2="effect1_dropShadow_728_99" result="shape"/>
<feColorMatrix in="SourceAlpha" type="matrix" values="0 0 0 0 0 0 0 0 0 0 0 0 0 0 0 0 0 0 127 0" result="hardAlpha"/>
<feOffset/>
<feGaussianBlur stdDeviation="4"/>
<feComposite in2="hardAlpha" operator="arithmetic" k2="-1" k3="1"/>
<feColorMatrix type="matrix" values="0 0 0 0 0 0 0 0 0 0 0 0 0 0 0 0 0 0 0.05 0"/>
<feBlend mode="normal" in2="shape" result="effect2_innerShadow_728_99"/>
</filter>
<linearGradient id="paint0_linear_728_99" x1="28.0909" y1="6.33333" x2="11.8275" y2="23.5293" gradientUnits="userSpaceOnUse">
<stop stop-color="white" stop-opacity="0.6"/>
<stop offset="1" stop-color="white"/>
</linearGradient>
<linearGradient id="paint1_linear_728_99" x1="28.0909" y1="6.33333" x2="11.8275" y2="23.5293" gradientUnits="userSpaceOnUse">
<stop stop-color="white" stop-opacity="0.6"/>
<stop offset="1" stop-color="white"/>
</linearGradient>
<linearGradient id="paint2_linear_728_99" x1="28.0909" y1="6.33333" x2="11.8275" y2="23.5293" gradientUnits="userSpaceOnUse">
<stop stop-color="white" stop-opacity="0.6"/>
<stop offset="1" stop-color="white"/>
</linearGradient>
<radialGradient id="paint3_radial_728_99" cx="0" cy="0" r="1" gradientUnits="userSpaceOnUse" gradientTransform="translate(30.75 4.11628) rotate(154.277) scale(25.5992 38.5559)">
<stop stop-color="white"/>
<stop offset="1" stop-color="#909AA3"/>
</radialGradient>
</defs>
</svg>
