<svg width="20" height="21" viewBox="0 0 20 21" fill="none" xmlns="http://www.w3.org/2000/svg">
<path fill-rule="evenodd" clip-rule="evenodd" d="M12.1219 7.19485C10.5841 5.65713 8.09099 5.65713 6.55327 7.19485C5.01554 8.73258 5.01554 11.2257 6.55327 12.7634C8.09099 14.3012 10.5841 14.3012 12.1219 12.7634C13.6596 11.2257 13.6596 8.73258 12.1219 7.19485ZM5.98758 6.62917C7.83773 4.77903 10.8374 4.77903 12.6875 6.62917C14.5377 8.47931 14.5377 11.479 12.6875 13.3291C10.8374 15.1793 7.83773 15.1793 5.98758 13.3291C4.13744 11.479 4.13744 8.47931 5.98758 6.62917ZM13.5847 13.9431C13.7409 13.7869 13.9941 13.7869 14.1503 13.9431L15.2828 15.0756C15.439 15.2318 15.439 15.4851 15.2828 15.6413C15.1266 15.7975 14.8733 15.7975 14.7171 15.6413L13.5847 14.5088C13.4284 14.3526 13.4284 14.0993 13.5847 13.9431Z" fill="black"/>
</svg>
