<svg width="176" height="147" viewBox="0 0 176 147" fill="none" xmlns="http://www.w3.org/2000/svg">
<g filter="url(#filter0_di_728_189)">
<path d="M105.385 39.0782C105.385 59.5558 89.04 76.1563 68.8774 76.1563C48.7147 76.1563 32.3697 59.5558 32.3697 39.0782C32.3697 18.6005 48.7147 2.00008 68.8774 2.00008C89.04 2.00008 105.385 18.6005 105.385 39.0782Z" fill="#FBCA1C"/>
<path d="M105.385 39.0782C105.385 59.5558 89.04 76.1563 68.8774 76.1563C48.7147 76.1563 32.3697 59.5558 32.3697 39.0782C32.3697 18.6005 48.7147 2.00008 68.8774 2.00008C89.04 2.00008 105.385 18.6005 105.385 39.0782Z" fill="url(#paint0_radial_728_189)" fill-opacity="0.2"/>
</g>
<g filter="url(#filter1_di_728_189)">
<path d="M144.45 61.3907C144.484 60.8065 144.501 60.2178 144.501 59.6251C144.501 43.048 131.269 29.6095 114.947 29.6095C107.093 29.6095 99.954 32.7212 94.6609 37.797C91.9835 37.0633 89.1678 36.672 86.2621 36.672C75.7524 36.672 66.4201 41.7918 60.5512 49.7095C58.7623 49.2663 56.8931 49.0313 54.9698 49.0313C42.008 49.0313 31.5005 59.7031 31.5005 72.8672C31.5005 72.9286 31.5008 72.99 31.5012 73.0513C31.5008 73.0944 31.5005 73.1373 31.5005 73.1805C31.5005 89.097 44.205 102 59.8767 102H104.516C126.599 102 144.501 83.8185 144.501 61.3907H144.45Z" fill="white"/>
<path d="M144.45 61.3907C144.484 60.8065 144.501 60.2178 144.501 59.6251C144.501 43.048 131.269 29.6095 114.947 29.6095C107.093 29.6095 99.954 32.7212 94.6609 37.797C91.9835 37.0633 89.1678 36.672 86.2621 36.672C75.7524 36.672 66.4201 41.7918 60.5512 49.7095C58.7623 49.2663 56.8931 49.0313 54.9698 49.0313C42.008 49.0313 31.5005 59.7031 31.5005 72.8672C31.5005 72.9286 31.5008 72.99 31.5012 73.0513C31.5008 73.0944 31.5005 73.1373 31.5005 73.1805C31.5005 89.097 44.205 102 59.8767 102H104.516C126.599 102 144.501 83.8185 144.501 61.3907H144.45Z" fill="url(#paint1_radial_728_189)" fill-opacity="0.2"/>
</g>
<g filter="url(#filter2_di_728_189)">
<path d="M118.5 68C118.5 59.1634 125.663 52 134.5 52H143.5C152.337 52 159.5 59.1634 159.5 68V69C159.5 77.8366 152.337 85 143.5 85H126.5C122.082 85 118.5 81.4183 118.5 77V68Z" fill="white"/>
<path d="M118.5 68C118.5 59.1634 125.663 52 134.5 52H143.5C152.337 52 159.5 59.1634 159.5 68V69C159.5 77.8366 152.337 85 143.5 85H126.5C122.082 85 118.5 81.4183 118.5 77V68Z" fill="url(#paint2_radial_728_189)" fill-opacity="0.2"/>
</g>
<g filter="url(#filter3_di_728_189)">
<path d="M55 92C55 83.1634 47.8366 76 39 76H30.5C22.4919 76 16 82.4919 16 90.5C16 98.5081 22.4919 105 30.5 105H47C51.4183 105 55 101.418 55 97V92Z" fill="white"/>
<path d="M55 92C55 83.1634 47.8366 76 39 76H30.5C22.4919 76 16 82.4919 16 90.5C16 98.5081 22.4919 105 30.5 105H47C51.4183 105 55 101.418 55 97V92Z" fill="url(#paint3_radial_728_189)" fill-opacity="0.2"/>
</g>
<g filter="url(#filter4_dii_728_189)">
<path d="M55 120.214C55 117.058 57.5584 114.5 60.7143 114.5H64V119.357C64 122.197 61.6975 124.5 58.8571 124.5C56.7269 124.5 55 122.773 55 120.643V120.214Z" fill="#379ADC"/>
</g>
<g filter="url(#filter5_dii_728_189)">
<path d="M74 115.214C74 112.058 76.5584 109.5 79.7143 109.5H83V114.357C83 117.197 80.6975 119.5 77.8571 119.5C75.7269 119.5 74 117.773 74 115.643V115.214Z" fill="#379ADC"/>
</g>
<g filter="url(#filter6_dii_728_189)">
<path d="M86 130.214C86 127.058 88.5584 124.5 91.7143 124.5H95V129.357C95 132.197 92.6975 134.5 89.8571 134.5C87.7269 134.5 86 132.773 86 130.643V130.214Z" fill="#379ADC"/>
</g>
<g filter="url(#filter7_dii_728_189)">
<path d="M106 115.214C106 112.058 108.558 109.5 111.714 109.5H115V114.357C115 117.197 112.697 119.5 109.857 119.5C107.727 119.5 106 117.773 106 115.643V115.214Z" fill="#379ADC"/>
</g>
<defs>
<filter id="filter0_di_728_189" x="30.703" y="0.333419" width="76.3487" height="77.4895" filterUnits="userSpaceOnUse" color-interpolation-filters="sRGB">
<feFlood flood-opacity="0" result="BackgroundImageFix"/>
<feColorMatrix in="SourceAlpha" type="matrix" values="0 0 0 0 0 0 0 0 0 0 0 0 0 0 0 0 0 0 127 0" result="hardAlpha"/>
<feOffset/>
<feGaussianBlur stdDeviation="0.833332"/>
<feComposite in2="hardAlpha" operator="out"/>
<feColorMatrix type="matrix" values="0 0 0 0 0.984314 0 0 0 0 0.792157 0 0 0 0 0.109804 0 0 0 0.2 0"/>
<feBlend mode="normal" in2="BackgroundImageFix" result="effect1_dropShadow_728_189"/>
<feBlend mode="normal" in="SourceGraphic" in2="effect1_dropShadow_728_189" result="shape"/>
<feColorMatrix in="SourceAlpha" type="matrix" values="0 0 0 0 0 0 0 0 0 0 0 0 0 0 0 0 0 0 127 0" result="hardAlpha"/>
<feOffset/>
<feGaussianBlur stdDeviation="1.5"/>
<feComposite in2="hardAlpha" operator="arithmetic" k2="-1" k3="1"/>
<feColorMatrix type="matrix" values="0 0 0 0 0.984314 0 0 0 0 0.529569 0 0 0 0 0.109804 0 0 0 0.5 0"/>
<feBlend mode="normal" in2="shape" result="effect2_innerShadow_728_189"/>
</filter>
<filter id="filter1_di_728_189" x="26.1672" y="27.6095" width="123.667" height="83.0572" filterUnits="userSpaceOnUse" color-interpolation-filters="sRGB">
<feFlood flood-opacity="0" result="BackgroundImageFix"/>
<feColorMatrix in="SourceAlpha" type="matrix" values="0 0 0 0 0 0 0 0 0 0 0 0 0 0 0 0 0 0 127 0" result="hardAlpha"/>
<feOffset dy="3.33333"/>
<feGaussianBlur stdDeviation="2.66666"/>
<feComposite in2="hardAlpha" operator="out"/>
<feColorMatrix type="matrix" values="0 0 0 0 0.301961 0 0 0 0 0.368627 0 0 0 0 0.435294 0 0 0 0.08 0"/>
<feBlend mode="normal" in2="BackgroundImageFix" result="effect1_dropShadow_728_189"/>
<feBlend mode="normal" in="SourceGraphic" in2="effect1_dropShadow_728_189" result="shape"/>
<feColorMatrix in="SourceAlpha" type="matrix" values="0 0 0 0 0 0 0 0 0 0 0 0 0 0 0 0 0 0 127 0" result="hardAlpha"/>
<feOffset/>
<feGaussianBlur stdDeviation="0.999999"/>
<feComposite in2="hardAlpha" operator="arithmetic" k2="-1" k3="1"/>
<feColorMatrix type="matrix" values="0 0 0 0 0.301961 0 0 0 0 0.368627 0 0 0 0 0.435294 0 0 0 0.08 0"/>
<feBlend mode="normal" in2="shape" result="effect2_innerShadow_728_189"/>
</filter>
<filter id="filter2_di_728_189" x="102.5" y="41" width="73" height="65" filterUnits="userSpaceOnUse" color-interpolation-filters="sRGB">
<feFlood flood-opacity="0" result="BackgroundImageFix"/>
<feColorMatrix in="SourceAlpha" type="matrix" values="0 0 0 0 0 0 0 0 0 0 0 0 0 0 0 0 0 0 127 0" result="hardAlpha"/>
<feOffset dy="5"/>
<feGaussianBlur stdDeviation="8"/>
<feComposite in2="hardAlpha" operator="out"/>
<feColorMatrix type="matrix" values="0 0 0 0 0 0 0 0 0 0 0 0 0 0 0 0 0 0 0.14 0"/>
<feBlend mode="normal" in2="BackgroundImageFix" result="effect1_dropShadow_728_189"/>
<feBlend mode="normal" in="SourceGraphic" in2="effect1_dropShadow_728_189" result="shape"/>
<feColorMatrix in="SourceAlpha" type="matrix" values="0 0 0 0 0 0 0 0 0 0 0 0 0 0 0 0 0 0 127 0" result="hardAlpha"/>
<feOffset/>
<feGaussianBlur stdDeviation="5.5"/>
<feComposite in2="hardAlpha" operator="arithmetic" k2="-1" k3="1"/>
<feColorMatrix type="matrix" values="0 0 0 0 0.301961 0 0 0 0 0.368627 0 0 0 0 0.435294 0 0 0 0.08 0"/>
<feBlend mode="normal" in2="shape" result="effect2_innerShadow_728_189"/>
</filter>
<filter id="filter3_di_728_189" x="0" y="65" width="71" height="61" filterUnits="userSpaceOnUse" color-interpolation-filters="sRGB">
<feFlood flood-opacity="0" result="BackgroundImageFix"/>
<feColorMatrix in="SourceAlpha" type="matrix" values="0 0 0 0 0 0 0 0 0 0 0 0 0 0 0 0 0 0 127 0" result="hardAlpha"/>
<feOffset dy="5"/>
<feGaussianBlur stdDeviation="8"/>
<feComposite in2="hardAlpha" operator="out"/>
<feColorMatrix type="matrix" values="0 0 0 0 0 0 0 0 0 0 0 0 0 0 0 0 0 0 0.14 0"/>
<feBlend mode="normal" in2="BackgroundImageFix" result="effect1_dropShadow_728_189"/>
<feBlend mode="normal" in="SourceGraphic" in2="effect1_dropShadow_728_189" result="shape"/>
<feColorMatrix in="SourceAlpha" type="matrix" values="0 0 0 0 0 0 0 0 0 0 0 0 0 0 0 0 0 0 127 0" result="hardAlpha"/>
<feOffset/>
<feGaussianBlur stdDeviation="5.5"/>
<feComposite in2="hardAlpha" operator="arithmetic" k2="-1" k3="1"/>
<feColorMatrix type="matrix" values="0 0 0 0 0.301961 0 0 0 0 0.368627 0 0 0 0 0.435294 0 0 0 0.08 0"/>
<feBlend mode="normal" in2="shape" result="effect2_innerShadow_728_189"/>
</filter>
<filter id="filter4_dii_728_189" x="47" y="110.5" width="25" height="26" filterUnits="userSpaceOnUse" color-interpolation-filters="sRGB">
<feFlood flood-opacity="0" result="BackgroundImageFix"/>
<feColorMatrix in="SourceAlpha" type="matrix" values="0 0 0 0 0 0 0 0 0 0 0 0 0 0 0 0 0 0 127 0" result="hardAlpha"/>
<feOffset dy="4"/>
<feGaussianBlur stdDeviation="4"/>
<feComposite in2="hardAlpha" operator="out"/>
<feColorMatrix type="matrix" values="0 0 0 0 0.282353 0 0 0 0 0.517647 0 0 0 0 0.933333 0 0 0 0.2 0"/>
<feBlend mode="normal" in2="BackgroundImageFix" result="effect1_dropShadow_728_189"/>
<feBlend mode="normal" in="SourceGraphic" in2="effect1_dropShadow_728_189" result="shape"/>
<feColorMatrix in="SourceAlpha" type="matrix" values="0 0 0 0 0 0 0 0 0 0 0 0 0 0 0 0 0 0 127 0" result="hardAlpha"/>
<feOffset/>
<feGaussianBlur stdDeviation="1"/>
<feComposite in2="hardAlpha" operator="arithmetic" k2="-1" k3="1"/>
<feColorMatrix type="matrix" values="0 0 0 0 0 0 0 0 0 0 0 0 0 0 0 0 0 0 0.25 0"/>
<feBlend mode="normal" in2="shape" result="effect2_innerShadow_728_189"/>
<feColorMatrix in="SourceAlpha" type="matrix" values="0 0 0 0 0 0 0 0 0 0 0 0 0 0 0 0 0 0 127 0" result="hardAlpha"/>
<feOffset dy="-1"/>
<feGaussianBlur stdDeviation="1"/>
<feComposite in2="hardAlpha" operator="arithmetic" k2="-1" k3="1"/>
<feColorMatrix type="matrix" values="0 0 0 0 0 0 0 0 0 0 0 0 0 0 0 0 0 0 0.25 0"/>
<feBlend mode="normal" in2="effect2_innerShadow_728_189" result="effect3_innerShadow_728_189"/>
</filter>
<filter id="filter5_dii_728_189" x="66" y="105.5" width="25" height="26" filterUnits="userSpaceOnUse" color-interpolation-filters="sRGB">
<feFlood flood-opacity="0" result="BackgroundImageFix"/>
<feColorMatrix in="SourceAlpha" type="matrix" values="0 0 0 0 0 0 0 0 0 0 0 0 0 0 0 0 0 0 127 0" result="hardAlpha"/>
<feOffset dy="4"/>
<feGaussianBlur stdDeviation="4"/>
<feComposite in2="hardAlpha" operator="out"/>
<feColorMatrix type="matrix" values="0 0 0 0 0.282353 0 0 0 0 0.517647 0 0 0 0 0.933333 0 0 0 0.2 0"/>
<feBlend mode="normal" in2="BackgroundImageFix" result="effect1_dropShadow_728_189"/>
<feBlend mode="normal" in="SourceGraphic" in2="effect1_dropShadow_728_189" result="shape"/>
<feColorMatrix in="SourceAlpha" type="matrix" values="0 0 0 0 0 0 0 0 0 0 0 0 0 0 0 0 0 0 127 0" result="hardAlpha"/>
<feOffset/>
<feGaussianBlur stdDeviation="1"/>
<feComposite in2="hardAlpha" operator="arithmetic" k2="-1" k3="1"/>
<feColorMatrix type="matrix" values="0 0 0 0 0 0 0 0 0 0 0 0 0 0 0 0 0 0 0.25 0"/>
<feBlend mode="normal" in2="shape" result="effect2_innerShadow_728_189"/>
<feColorMatrix in="SourceAlpha" type="matrix" values="0 0 0 0 0 0 0 0 0 0 0 0 0 0 0 0 0 0 127 0" result="hardAlpha"/>
<feOffset dy="-1"/>
<feGaussianBlur stdDeviation="1"/>
<feComposite in2="hardAlpha" operator="arithmetic" k2="-1" k3="1"/>
<feColorMatrix type="matrix" values="0 0 0 0 0 0 0 0 0 0 0 0 0 0 0 0 0 0 0.25 0"/>
<feBlend mode="normal" in2="effect2_innerShadow_728_189" result="effect3_innerShadow_728_189"/>
</filter>
<filter id="filter6_dii_728_189" x="78" y="120.5" width="25" height="26" filterUnits="userSpaceOnUse" color-interpolation-filters="sRGB">
<feFlood flood-opacity="0" result="BackgroundImageFix"/>
<feColorMatrix in="SourceAlpha" type="matrix" values="0 0 0 0 0 0 0 0 0 0 0 0 0 0 0 0 0 0 127 0" result="hardAlpha"/>
<feOffset dy="4"/>
<feGaussianBlur stdDeviation="4"/>
<feComposite in2="hardAlpha" operator="out"/>
<feColorMatrix type="matrix" values="0 0 0 0 0.282353 0 0 0 0 0.517647 0 0 0 0 0.933333 0 0 0 0.2 0"/>
<feBlend mode="normal" in2="BackgroundImageFix" result="effect1_dropShadow_728_189"/>
<feBlend mode="normal" in="SourceGraphic" in2="effect1_dropShadow_728_189" result="shape"/>
<feColorMatrix in="SourceAlpha" type="matrix" values="0 0 0 0 0 0 0 0 0 0 0 0 0 0 0 0 0 0 127 0" result="hardAlpha"/>
<feOffset/>
<feGaussianBlur stdDeviation="1"/>
<feComposite in2="hardAlpha" operator="arithmetic" k2="-1" k3="1"/>
<feColorMatrix type="matrix" values="0 0 0 0 0 0 0 0 0 0 0 0 0 0 0 0 0 0 0.25 0"/>
<feBlend mode="normal" in2="shape" result="effect2_innerShadow_728_189"/>
<feColorMatrix in="SourceAlpha" type="matrix" values="0 0 0 0 0 0 0 0 0 0 0 0 0 0 0 0 0 0 127 0" result="hardAlpha"/>
<feOffset dy="-1"/>
<feGaussianBlur stdDeviation="1"/>
<feComposite in2="hardAlpha" operator="arithmetic" k2="-1" k3="1"/>
<feColorMatrix type="matrix" values="0 0 0 0 0 0 0 0 0 0 0 0 0 0 0 0 0 0 0.25 0"/>
<feBlend mode="normal" in2="effect2_innerShadow_728_189" result="effect3_innerShadow_728_189"/>
</filter>
<filter id="filter7_dii_728_189" x="98" y="105.5" width="25" height="26" filterUnits="userSpaceOnUse" color-interpolation-filters="sRGB">
<feFlood flood-opacity="0" result="BackgroundImageFix"/>
<feColorMatrix in="SourceAlpha" type="matrix" values="0 0 0 0 0 0 0 0 0 0 0 0 0 0 0 0 0 0 127 0" result="hardAlpha"/>
<feOffset dy="4"/>
<feGaussianBlur stdDeviation="4"/>
<feComposite in2="hardAlpha" operator="out"/>
<feColorMatrix type="matrix" values="0 0 0 0 0.282353 0 0 0 0 0.517647 0 0 0 0 0.933333 0 0 0 0.2 0"/>
<feBlend mode="normal" in2="BackgroundImageFix" result="effect1_dropShadow_728_189"/>
<feBlend mode="normal" in="SourceGraphic" in2="effect1_dropShadow_728_189" result="shape"/>
<feColorMatrix in="SourceAlpha" type="matrix" values="0 0 0 0 0 0 0 0 0 0 0 0 0 0 0 0 0 0 127 0" result="hardAlpha"/>
<feOffset/>
<feGaussianBlur stdDeviation="1"/>
<feComposite in2="hardAlpha" operator="arithmetic" k2="-1" k3="1"/>
<feColorMatrix type="matrix" values="0 0 0 0 0 0 0 0 0 0 0 0 0 0 0 0 0 0 0.25 0"/>
<feBlend mode="normal" in2="shape" result="effect2_innerShadow_728_189"/>
<feColorMatrix in="SourceAlpha" type="matrix" values="0 0 0 0 0 0 0 0 0 0 0 0 0 0 0 0 0 0 127 0" result="hardAlpha"/>
<feOffset dy="-1"/>
<feGaussianBlur stdDeviation="1"/>
<feComposite in2="hardAlpha" operator="arithmetic" k2="-1" k3="1"/>
<feColorMatrix type="matrix" values="0 0 0 0 0 0 0 0 0 0 0 0 0 0 0 0 0 0 0.25 0"/>
<feBlend mode="normal" in2="effect2_innerShadow_728_189" result="effect3_innerShadow_728_189"/>
</filter>
<radialGradient id="paint0_radial_728_189" cx="0" cy="0" r="1" gradientUnits="userSpaceOnUse" gradientTransform="translate(-312.715 99.1094) rotate(51.1453) scale(49.8803 34.7353)">
<stop stop-color="#FBCA1C"/>
<stop offset="1" stop-color="#E4750E"/>
</radialGradient>
<radialGradient id="paint1_radial_728_189" cx="0" cy="0" r="1" gradientUnits="userSpaceOnUse" gradientTransform="translate(128.5 37.5) rotate(140.084) scale(99.7409 157.027)">
<stop stop-color="white"/>
<stop offset="1" stop-color="#899299"/>
</radialGradient>
<radialGradient id="paint2_radial_728_189" cx="0" cy="0" r="1" gradientUnits="userSpaceOnUse" gradientTransform="translate(110.052 51.75) rotate(48.7491) scale(62.1817 42.2285)">
<stop stop-color="#4D5E6F" stop-opacity="0"/>
<stop offset="1" stop-color="#4D5E6F" stop-opacity="0.54"/>
</radialGradient>
<radialGradient id="paint3_radial_728_189" cx="0" cy="0" r="1" gradientUnits="userSpaceOnUse" gradientTransform="translate(59.7069 63.9167) rotate(133.51) scale(56.6466 38.7488)">
<stop stop-color="#4D5E6F" stop-opacity="0"/>
<stop offset="1" stop-color="#4D5E6F" stop-opacity="0.54"/>
</radialGradient>
</defs>
</svg>
